<?xml version="1.0" encoding="UTF-8"?> <svg xmlns="http://www.w3.org/2000/svg" xmlns:xlink="http://www.w3.org/1999/xlink" version="1.1" id="Layer_1" x="0px" y="0px" viewBox="0 0 450 200" style="enable-background:new 0 0 450 200;" xml:space="preserve"> <g> <g> <g> <path style="fill:#F36F24;" d="M100.27,92.46c5.5,10.08,5.36,22.28-0.35,32.24l0,0l-9.2,16.03l-9.2,16.02l-4.48,7.81 c-2.06,3.6-7.27,3.54-9.25-0.1l-4.31-7.9l-8.85-16.22l-8.85-16.22l0,0c-5.5-10.08-5.36-22.28,0.35-32.24l0,0l8.85,16.22 l8.85,16.22l0.88,1.61c3.49,6.39,12.63,6.49,16.26,0.17l0.91-1.59l9.2-16.03L100.27,92.46L100.27,92.46z"></path> <path style="fill:#F36F24;" d="M136.48,123.17l-0.3,0.52l-17.7-32.43l-8.85-16.22l-8.85-16.22l-9.2,16.03l-9.2,16.02l-3.3,5.74 c-2.58,4.5-9.1,4.43-11.59-0.12l-3.17-5.81l-8.84-16.22l-8.85-16.22l-9.2,16.02l-9.2,16.03l-9.2,16.02l-9.2,16.03l-0.29-0.53 c-5.32-9.75-5.19-21.57,0.34-31.2l0.3-0.52l9.2-16.02l9.2-16.03l9.2-16.02l4.36-7.58c2.12-3.7,7.47-3.64,9.51,0.1l4.18,7.67 l8.85,16.22l4.18,7.67c2.04,3.74,7.39,3.8,9.51,0.1l4.35-7.58l9.2-16.03l5.01-8.73c1.83-3.19,6.45-3.14,8.21,0.09l4.83,8.84 l8.84,16.22l8.85,16.22l8.85,16.22l0.29,0.52C142.14,101.73,142.01,113.54,136.48,123.17z"></path> </g> </g> <path style="fill:#F36F24;" d="M160.15,53.53L160.15,53.53c-4.27,0-8.07,2.72-9.45,6.77l-9.73,28.63c1.12,0.11,2.22,0.32,3.3,0.61 c1.27,0.34,2.64-0.36,3.05-1.61l0.97-2.95h16.27l3.1,9.12c1.08,3.17,4.06,5.31,7.41,5.31h0.72L160.15,53.53z M160.73,80.34 c-5.5,0-9.37-5.4-7.61-10.61l0.9-2.66c0.89-2.79,1.63-5.58,2.31-8.3h0.14c0.68,2.65,1.36,5.38,2.38,8.37l4.49,13.2H160.73z"></path> <path style="fill:#F36F24;" d="M181.71,89.56c2.65,2.18,6.53,3.99,10.62,3.99c6.06,0,9.6-4.26,9.6-10.43 c0-5.71-2.45-8.98-8.65-12.15c-7.49-3.54-12.11-8.7-12.11-17.32c0-9.52,5.92-16.59,14.84-16.59c4.09,0,187.92-1.17,236.39-0.45 c6.45,0.1,11.6,5.34,11.6,11.79v0c-1.5-1.09-244.05-4.81-248.2-4.81c-6.26,0-8.65,4.99-8.65,9.16c0,5.71,2.79,8.52,9.12,11.79 c7.76,3.99,11.71,8.97,11.71,17.95c0,9.43-5.24,17.59-16.06,17.59c-1.24,0-2.51-0.14-3.76-0.38 C183.55,98.8,180.67,94.15,181.71,89.56L181.71,89.56z"></path> <path style="fill:#F36F24;" d="M221.99,53.53v19.19h10.34c6.54,0,11.85-5.3,11.85-11.85v-1.36c0-3.31,2.68-5.99,5.99-5.99l0,0 v39.88c0,3.31-2.68,5.99-5.99,5.99h0V77.89h-10.81c-6.28,0-11.38,5.09-11.38,11.38V99.4h0c-3.27,0-5.92-2.65-5.92-5.92V59.45 C216.07,56.18,218.72,53.53,221.99,53.53L221.99,53.53z"></path> <path style="fill:#F36F24;" d="M267.85,84.97L265,93.58c-1.15,3.47-4.39,5.81-8.04,5.81h0l13.29-39.11 c1.37-4.05,5.17-6.77,9.45-6.77l0,0l15.65,45.87l0,0c-3.78,0-7.15-2.41-8.37-5.99l-2.86-8.43H267.85z M282.89,80.34l-4.49-13.2 c-1.02-2.99-1.7-5.72-2.38-8.37h-0.13c-0.68,2.72-1.43,5.51-2.31,8.3l-1.94,5.72c-1.25,3.71,1.5,7.55,5.42,7.55H282.89z"></path> <path style="fill:#F36F24;" d="M307.99,53.53L307.99,53.53v21.3c0,10.83,8.78,19.6,19.6,19.6h0v4.97h-20.18 c-2.95,0-5.34-2.39-5.34-5.34V59.45C302.07,56.18,304.72,53.53,307.99,53.53z"></path> <path style="fill:#F36F24;" d="M340.1,53.53L340.1,53.53l0,21.3c0,10.83,8.78,19.6,19.6,19.6l0,0v4.97h-21.64 c-2.14,0-3.88-1.74-3.88-3.88V59.45C334.18,56.18,336.83,53.53,340.1,53.53z"></path> <path style="fill:#F36F24;" d="M373.71,84.97l-2.85,8.61c-1.15,3.47-4.39,5.81-8.04,5.81l0,0l13.29-39.11 c1.37-4.05,5.17-6.77,9.45-6.77h0l15.65,45.87l0,0c-3.78,0-7.15-2.41-8.37-5.99l-2.86-8.43H373.71z M388.76,80.34l-4.49-13.2 c-1.02-2.99-1.7-5.72-2.38-8.37h-0.13c-0.68,2.72-1.43,5.51-2.31,8.3l-1.58,4.66c-1.43,4.23,1.71,8.61,6.17,8.61H388.76z"></path> <path style="fill:#F36F24;" d="M413.85,53.53v19.19h10.8c6.29,0,11.39-5.1,11.39-11.39v-1.81c0-3.31,2.68-5.99,5.99-5.99l0,0v39.88 c0,3.31-2.68,5.99-5.99,5.99l0,0V77.89h-10.11c-6.67,0-12.07,5.41-12.07,12.07v9.43h0c-3.27,0-5.92-2.65-5.92-5.92V59.45 C407.93,56.18,410.58,53.53,413.85,53.53L413.85,53.53z"></path> <path style="fill:#F36F24;" d="M153.54,141.27c-6.33-2.44-9.12-4.54-9.12-8.84c0-3.13,2.38-6.87,8.64-6.87 c4.15,0,7.2,1.36,8.71,2.18v-0.02c0.97-2.92-0.78-6.12-3.78-6.66c-1.38-0.26-2.96-0.41-4.73-0.41c-8.93,0-14.83,5.32-14.83,12.47 c0,6.46,4.62,10.33,12.1,12.99c6.2,2.38,8.64,4.84,8.64,9.12c0,4.62-3.54,7.82-9.6,7.82c-2.38,0-16.58-3.72-28.57-7.13 c0.02,0.3,0.04,0.61,0.04,0.93c0,3.29-1.24,6.32-3.27,8.61c-0.64,0.73-0.13,1.87,0.84,1.9c13.76,0.41,28.27,0.6,30.55,0.6 c10.83,0,16.06-6.14,16.06-13.2C165.23,148.01,161.3,144.27,153.54,141.27z"></path> <path style="fill:#F36F24;" d="M201.43,126.22c0,0.62,0,3.25,0,6.09c0,4.58-3.71,8.29-8.29,8.29h-13.9v-14.32 c-1.91-1.34-3.5-2.99-4.77-4.87h-1.15v39.95c0,3.27,2.65,5.92,5.92,5.92h0v-11.04c0-5.78,4.69-10.47,10.47-10.47h11.72v21.51h0 c3.31,0,5.99-2.68,5.99-5.99V121.4h-1.57c-1.03,1.81-2.54,3.35-4.3,4.6C201.48,126.05,201.43,126.13,201.43,126.22z"></path> <path style="fill:#F36F24;" d="M256.89,143.87c0,15.79-9.59,24.16-21.3,24.16c-12.11,0-20.62-9.39-20.62-23.28 c0-14.56,9.05-24.09,21.3-24.09C248.79,120.66,256.89,130.26,256.89,143.87z M221.29,144.61c0,9.8,5.31,18.58,14.63,18.58 c9.39,0,14.7-8.64,14.7-19.05c0-9.12-4.77-18.65-14.63-18.65C226.19,125.49,221.29,134.54,221.29,144.61z"></path> <path style="fill:#F36F24;" d="M264.56,121.95c2.86-0.48,6.6-0.89,11.37-0.89c5.85,0,10.14,1.36,12.86,3.81 c2.52,2.18,4.02,5.51,4.02,9.59c0,4.16-1.23,7.42-3.54,9.8c-3.13,3.33-8.24,5.03-14.02,5.03c-1.77,0-3.4-0.07-4.77-0.41v18.38h0 c-3.27,0-5.92-2.65-5.92-5.92V121.95z M270.48,144.07c1.3,0.34,2.93,0.48,4.9,0.48c7.15,0,11.5-3.47,11.5-9.8 c0-6.05-4.29-8.98-10.82-8.98l0,0c-3.08,0-5.58,2.5-5.58,5.59V144.07z"></path> <linearGradient id="SVGID_1_" gradientUnits="userSpaceOnUse" x1="97.283" y1="159.0111" x2="114.5726" y2="159.0111"> <stop offset="0" style="stop-color:#F15A29"></stop> <stop offset="0.3832" style="stop-color:#F79437"></stop> <stop offset="0.5984" style="stop-color:#FBB040"></stop> </linearGradient> <circle style="fill:url(#SVGID_1_);" cx="105.93" cy="159.01" r="8.64"></circle> </g> </svg> 